# xmcd
#
# Track frame offsets:
#        150
#        23760
#        49012
#        62087
#        86827
#        87835
#        120780
#        139315
#        145695
#        162902
#        179050
#        186092
#        220830
#        230600
#        238902
#
# Disc length: 3436 seconds
#
# Revision: 0
# Processed by: cddbd v1.5.1PL0 Copyright (c) Steve Scherf et al.
# Submitted via: ExactAudioCopy v0.95a5
#
DISCID=d10d6a0f
DTITLE=Critters Buggin - Bumpa
DYEAR=1900
DGENRE=
TTITLE0=Fluoride
TTITLE1=Brozo the Clone
TTITLE2=I Ate Lucy
TTITLE3=Chimp and Ape
TTITLE4=Senjara
TTITLE5=Raimondi
TTITLE6=Bomb Ass Tick
TTITLE7=Joe Sard
TTITLE8=Trucker Beak
TTITLE9=Fast Johnson
TTITLE10=Pedro Lovin'
TTITLE11=33:
TTITLE12=One, Two, Three, Four
TTITLE13=Joe Sard (Reprise)
TTITLE14=New Luck Poodle Store [Japan Ver.]
EXTD=
EXTT0=
EXTT1=
EXTT2=
EXTT3=
EXTT4=
EXTT5=
EXTT6=
EXTT7=
EXTT8=
EXTT9=
EXTT10=
EXTT11=
EXTT12=
EXTT13=
EXTT14=
PLAYORDER=
